# xmcd CD database file
#
# Track frame offsets:
#	150
#	76900
#	127811
#	214050
#	238235
#	280476
#
# Disc length: 4671 seconds
#
# Revision: 0
# Processed by: cddbd v1.5.2PL0 Copyright (c) Steve Scherf et al.
# Submitted via: CDex 1.51
#
DISCID=50123d06
DTITLE=Thronehammer - Usurper of the Oaken Throne
DYEAR=2019
DGENRE=Doom Metal
TTITLE0=Behind the Wall of Frost
TTITLE1=Conquered and Erased
TTITLE2=Warhorn
TTITLE3=Svarte Skyer
TTITLE4=Thronehammer
TTITLE5=Usurper of the Oaken Throne
EXTD=YEAR: 2019
EXTT0=
EXTT1=
EXTT2=
EXTT3=
EXTT4=
EXTT5=
PLAYORDER=
